# Alias OBJ Model File
# Exported from SketchUp, (c) 2000-2006 Google, Inc.
# File units = millimeters

mtllib Windmill.mtl

g Mesh1 Model

usemtl material_86
v 19.9981 502.194 -44.6802
vt 6.85563e-015 -1.1402e-013
vn -0.966342 0.127927 0.223197
v 0 8.62214 151.631
vt 1 1
v 59.9951 511.73 123.023
vt 1 -1.14242e-013
f 1/1/1 2/2/1 3/3/1

vt 9.73428e-008 -1.5137e-008
vn -0.999213 0.0395898 -0.00225117
v 0 0.914178 16.0718
vt 0.191672 0.999999
vt 1 1
f 1/4/2 4/5/2 2/6/2

v 0 0 -0
vt 0.0958373 1
f 4/5/2 1/4/2 5/7/2

v 0 -0.913908 -16.0722
vt 9.5716e-008 1
f 5/7/2 1/4/2 6/8/2

vt 0.191673 0.999999
vn -0.999213 -0.0395899 0.00225115
v 19.9981 -502.194 44.6798
vt 2.67209e-007 -3.80689e-008
vt 0.0958354 0.999999
f 6/9/3 7/10/3 5/11/3

v 0 -8.62187 -151.631
vt 1 1
f 7/10/3 6/9/3 8/12/3

vt 1 1
vn -0.966342 -0.127927 -0.223197
v 59.9951 -511.73 -123.023
vt 1 6.88338e-015
vt 4.78784e-014 6.66134e-015
f 8/13/4 9/14/4 7/15/4

vt 2.62724e-007 1
f 5/11/3 7/10/3 4/16/3

g Mesh2 Model

v 59.9951 123.023 -511.73
vt 1 -1.14908e-013
vn -0.966342 0.223197 -0.127927
v 19.9981 -44.6798 -502.194
vt -4.43812e-014 -1.2057e-013
v 0 151.631 -8.62221
vt 1 1
f 10/17/5 11/18/5 12/19/5

vt 9.7036e-008 -1.64844e-008
vn -0.999213 -0.00225119 -0.0395898
v 0 16.0722 -0.914201
vt 0.191668 0.999999
vt 1 1
f 11/20/6 13/21/6 12/22/6

vt 0.0958298 1
f 11/20/6 5/23/6 13/21/6

v 0 -16.0708 0.913837
vt 9.69822e-008 1
f 5/23/6 11/20/6 14/24/6

vt 0.191667 0.999999
vn -0.999213 0.00225113 0.0395899
v 19.9981 44.6802 502.194
vt 2.6789e-007 -3.60711e-008
vt 0.0958374 0.999999
f 14/25/7 15/26/7 5/27/7

v 0 -151.631 8.6218
vt 1 1
f 15/26/7 14/25/7 16/28/7

vt 1 1
vn -0.966342 -0.223197 0.127927
v 59.9951 -123.023 511.73
vt 1 4.3765e-013
vt -1.28758e-013 4.37983e-013
f 16/29/8 17/30/8 15/31/8

vt 2.67765e-007 1
f 5/27/7 15/26/7 13/32/7

